<?xml version="1.0" encoding="iso-8859-1"?>
<!-- Generator: Adobe Illustrator 19.0.0, SVG Export Plug-In . SVG Version: 6.00 Build 0)  -->
<svg version="1.1" id="Layer_1" xmlns="http://www.w3.org/2000/svg" xmlns:xlink="http://www.w3.org/1999/xlink" x="0px" y="0px"
	 viewBox="0 0 512 512" style="enable-background:new 0 0 512 512;" xml:space="preserve">
<path style="fill:#94C8EF;" d="M468.912,144.707l-34.637-27.353V73.083H337.93v44.271l-34.637,27.353
	c-7.472,5.901-13.584,18.518-13.584,28.038l11.253,8.44l-11.253,8.44v50.972l11.253,8.44l-11.253,8.44v50.972l11.253,8.44
	l-11.253,8.44v50.972l11.253,8.44l-11.253,8.44v50.972l11.253,8.44l-11.253,8.44v16.353c0,19.041,15.579,34.62,34.62,34.62h123.548
	c19.041,0,34.62-15.578,34.62-34.62v-16.351l-11.253-8.44l11.253-8.44v-50.972l-11.253-8.44l11.253-8.44v-50.973l-11.253-8.44
	l11.253-8.44v-50.973l-11.253-8.44l11.253-8.44v-50.97l-11.253-8.44l11.253-8.44C482.496,163.224,476.383,150.608,468.912,144.707z"
	/>
<path style="fill:#C8E6FF;" d="M349.037,495.121c-9.782,0-31.197-7.958-31.197-17.741V172.745c0-4.353,3.751-12.094,7.167-14.792
	l36.553-32.423l4.501-52.448h40.081l5.626,52.448l35.427,32.423c3.416,2.697,7.167,10.438,7.167,14.792V477.38
	c0,9.782-21.415,17.741-31.197,17.741H349.037z"/>
<path style="fill:#ADD9FF;" d="M458.45,157.954l-41.053-32.423V73.083h-12.518v52.448l24.632,32.423
	c2.05,2.697,4.301,10.438,4.301,14.792V477.38c0,9.782-4.775,17.741-10.644,17.741h24.71c9.782,0,17.741-7.958,17.741-17.741
	V172.745C465.617,168.393,461.866,160.652,458.45,157.954z"/>
<path style="fill:#E4F2FF;" d="M342.693,157.955l24.633-32.423V73.083h-12.518v52.448l-41.055,32.423
	c-3.416,2.697-7.167,10.438-7.167,14.792V477.38c0,9.782,7.958,17.741,17.741,17.741h24.71c-5.869,0-10.644-7.958-10.644-17.741
	V172.745C338.393,168.393,340.644,160.652,342.693,157.955z"/>
<rect x="337.931" y="39.325" style="fill:#94C8EF;" width="96.346" height="33.758"/>
<path style="fill:#E4F2FF;" d="M426.703,0h-78.949c-9.521,0-17.31,7.789-17.31,17.31v36.081h113.568V17.31
	C444.013,7.789,436.222,0,426.703,0z"/>
<g>
	<rect x="289.713" y="444.146" style="fill:#94C8EF;" width="192.782" height="16.879"/>
	<rect x="289.713" y="376.303" style="fill:#94C8EF;" width="192.782" height="16.879"/>
	<rect x="289.713" y="308.449" style="fill:#94C8EF;" width="192.782" height="16.879"/>
	<rect x="289.713" y="240.595" style="fill:#94C8EF;" width="192.782" height="16.879"/>
	<rect x="289.713" y="172.741" style="fill:#94C8EF;" width="192.782" height="16.879"/>
</g>
<path style="fill:#7AB6DE;" d="M435.573,81.523h-96.689c-4.661,0-8.44-3.779-8.44-8.44c0-4.661,3.779-8.44,8.44-8.44h96.689
	c4.662,0,8.44,3.779,8.44,8.44C444.013,77.744,440.234,81.523,435.573,81.523z"/>
<path style="fill:#94C8EF;" d="M208.706,144.707l-34.637-27.353V73.083H77.724v44.271l-34.637,27.353
	c-7.472,5.901-13.584,18.518-13.584,28.038l11.253,8.44l-11.253,8.44v50.972l11.253,8.44l-11.253,8.44v50.972l11.253,8.44
	l-11.253,8.44v50.972l11.253,8.44l-11.253,8.44v50.972l11.253,8.44l-11.253,8.44v16.353c0,19.041,15.579,34.62,34.62,34.62h123.548
	c19.041,0,34.62-15.578,34.62-34.62v-16.351l-11.253-8.44l11.253-8.44v-50.972l-11.253-8.44l11.253-8.44v-50.973l-11.253-8.44
	l11.253-8.44v-50.973l-11.253-8.44l11.253-8.44v-50.97l-11.253-8.44l11.253-8.44C222.291,163.224,216.177,150.608,208.706,144.707z"
	/>
<path style="fill:#C8E6FF;" d="M88.832,495.121c-9.782,0-31.197-7.958-31.197-17.741V172.745c0-4.353,3.751-12.094,7.167-14.792
	l36.553-32.423l4.501-52.448h40.081l5.626,52.448l35.427,32.423c3.416,2.697,7.167,10.438,7.167,14.792V477.38
	c0,9.782-21.415,17.741-31.197,17.741H88.832z"/>
<path style="fill:#ADD9FF;" d="M198.244,157.954l-41.053-32.423V73.083h-12.518v52.448l24.632,32.423
	c2.05,2.697,4.301,10.438,4.301,14.792V477.38c0,9.782-4.775,17.741-10.644,17.741h24.71c9.782,0,17.741-7.958,17.741-17.741
	V172.745C205.41,168.393,201.66,160.652,198.244,157.954z"/>
<path style="fill:#E4F2FF;" d="M82.488,157.955l24.633-32.423V73.083H94.604v52.448l-41.056,32.424
	c-3.416,2.697-7.167,10.438-7.167,14.792v304.634c0,9.782,7.958,17.741,17.741,17.741h24.71c-5.869,0-10.644-7.958-10.644-17.741
	V172.747C78.188,168.393,80.439,160.652,82.488,157.955z"/>
<rect x="77.722" y="39.325" style="fill:#94C8EF;" width="96.346" height="33.758"/>
<path style="fill:#E4F2FF;" d="M166.496,0H87.547c-9.521,0-17.31,7.789-17.31,17.31v36.081h113.568V17.31
	C183.806,7.789,176.017,0,166.496,0z"/>
<g>
	<rect x="29.504" y="444.146" style="fill:#94C8EF;" width="192.782" height="16.879"/>
	<rect x="29.504" y="376.303" style="fill:#94C8EF;" width="192.782" height="16.879"/>
	<rect x="29.504" y="308.449" style="fill:#94C8EF;" width="192.782" height="16.879"/>
	<rect x="29.504" y="240.595" style="fill:#94C8EF;" width="192.782" height="16.879"/>
	<rect x="29.504" y="172.741" style="fill:#94C8EF;" width="192.782" height="16.879"/>
</g>
<g>
	<path style="fill:#7AB6DE;" d="M175.367,81.523H78.678c-4.661,0-8.44-3.779-8.44-8.44c0-4.661,3.779-8.44,8.44-8.44h96.689
		c4.662,0,8.44,3.779,8.44,8.44C183.806,77.744,180.029,81.523,175.367,81.523z"/>
	<path style="fill:#7AB6DE;" d="M338.808,144.707l-34.637-27.353V73.083h-96.345v44.271l-34.637,27.353
		c-7.472,5.901-13.584,18.518-13.584,28.038l11.253,8.44l-11.253,8.44v50.972l11.253,8.44l-11.253,8.44v50.972l11.253,8.44
		l-11.253,8.44v50.972l11.253,8.44l-11.253,8.44v50.972l11.253,8.44l-11.253,8.44v16.353c0,19.041,15.579,34.62,34.62,34.62h123.548
		c19.041,0,34.62-15.578,34.62-34.62v-16.351l-11.253-8.44l11.253-8.44v-50.972l-11.253-8.44l11.253-8.44v-50.973l-11.253-8.44
		l11.253-8.44v-50.973l-11.253-8.44l11.253-8.44v-50.97l-11.253-8.44l11.253-8.44C352.394,163.224,346.28,150.608,338.808,144.707z"
		/>
</g>
<path style="fill:#ADD9FF;" d="M218.935,495.121c-9.782,0-31.197-7.958-31.197-17.741V172.745c0-4.353,3.751-12.094,7.167-14.792
	l36.553-32.423l4.501-52.448h40.081l5.626,52.448l35.427,32.423c3.416,2.697,7.167,10.438,7.167,14.792V477.38
	c0,9.782-21.415,17.741-31.197,17.741H218.935z"/>
<path style="fill:#94C8EF;" d="M328.347,157.954l-41.053-32.423V73.083h-12.518v52.448l24.632,32.423
	c2.05,2.697,4.301,10.438,4.301,14.792V477.38c0,9.782-4.775,17.741-10.644,17.741h24.71c9.782,0,17.741-7.958,17.741-17.741
	V172.745C335.514,168.393,331.763,160.652,328.347,157.954z"/>
<path style="fill:#C8E6FF;" d="M212.59,157.955l24.633-32.423V73.083h-12.518v52.448l-41.055,32.423
	c-3.416,2.697-7.167,10.438-7.167,14.792V477.38c0,9.782,7.958,17.741,17.741,17.741h24.71c-5.869,0-10.644-7.958-10.644-17.741
	V172.745C208.29,168.393,210.541,160.652,212.59,157.955z"/>
<rect x="207.826" y="39.325" style="fill:#7AB6DE;" width="96.346" height="33.758"/>
<path style="fill:#C8E6FF;" d="M296.599,0H217.65c-9.521,0-17.31,7.789-17.31,17.31v36.081h113.568V17.31
	C313.909,7.789,306.12,0,296.599,0z"/>
<g>
	<rect x="159.608" y="444.146" style="fill:#7AB6DE;" width="192.782" height="16.879"/>
	<rect x="159.608" y="376.303" style="fill:#7AB6DE;" width="192.782" height="16.879"/>
	<rect x="159.608" y="308.449" style="fill:#7AB6DE;" width="192.782" height="16.879"/>
	<rect x="159.608" y="240.595" style="fill:#7AB6DE;" width="192.782" height="16.879"/>
	<rect x="159.608" y="172.741" style="fill:#7AB6DE;" width="192.782" height="16.879"/>
</g>
<path style="fill:#4693BD;" d="M305.47,81.523h-96.689c-4.661,0-8.44-3.779-8.44-8.44c0-4.661,3.779-8.44,8.44-8.44h96.689
	c4.662,0,8.44,3.779,8.44,8.44C313.909,77.744,310.131,81.523,305.47,81.523z"/>
<g>
</g>
<g>
</g>
<g>
</g>
<g>
</g>
<g>
</g>
<g>
</g>
<g>
</g>
<g>
</g>
<g>
</g>
<g>
</g>
<g>
</g>
<g>
</g>
<g>
</g>
<g>
</g>
<g>
</g>
</svg>
