<svg xmlns="http://www.w3.org/2000/svg" xmlns:xlink="http://www.w3.org/1999/xlink" width="170.995" height="221.148" viewBox="0 0 170.995 221.148"><defs><clipPath id="a"><path d="M175,150.554S97.5,228.232,97.5,279,136,353.7,175,353.628s78.492-24.159,78.492-74.927S175,150.554,175,150.554Z" transform="translate(5 -5)" fill="none" stroke="#fff" stroke-width="15"/></clipPath><linearGradient id="b" x1="0.5" x2="0.5" y2="1" gradientUnits="objectBoundingBox"><stop offset="0" stop-color="#8ce7f5"/><stop offset="1" stop-color="#2256c9"/></linearGradient></defs><g transform="translate(-94.997 -134.98)"><path d="M175,150.554S97.5,228.232,97.5,279,136,353.7,175,353.628s78.492-24.159,78.492-74.927S175,150.554,175,150.554Z" transform="translate(5 -5)" fill="#fff" stroke="#fff" stroke-width="15"/><g clip-path="url(#a)"><path d="M82.385,246.244s31.065-9.9,63.723-8.193S182.1,257.267,217.569,255.8s63.268-17.751,63.268-17.751L261.719,371.414H90.123Z" transform="translate(4 -23)" fill="#489af1"/><path d="M280.836,246.244a535.859,535.859,0,0,0-57.806,0c-32.658,1.707-47.373,18.305-82.84,16.841s-57.806-25.034-57.806-25.034L101.5,371.414H273.1Z" transform="translate(4 -23)" opacity="0.7" fill="url(#b)"/></g><path d="M175,150.554S97.5,228.232,97.5,279,136,353.7,175,353.628s78.492-24.159,78.492-74.927S175,150.554,175,150.554Z" transform="translate(5 -5)" fill="none" stroke="#fff" stroke-width="15"/></g></svg>